<svg width="31" height="24" fill="none" xmlns="http://www.w3.org/2000/svg"><path fill-rule="evenodd" clip-rule="evenodd" d="M25.616 5.882H29.6c.632 0 1.149.516 1.149 1.148v15.309c0 .631-.517 1.148-1.149 1.148h-3.983a1.151 1.151 0 01-1.148-1.148V7.029c0-.631.517-1.147 1.148-1.147zM1.148 16.394h3.984c.631 0 1.148.517 1.148 1.149v4.796c0 .631-.517 1.148-1.148 1.148H1.148A1.151 1.151 0 010 22.339v-4.796c0-.632.517-1.149 1.148-1.149zm8.156-5.747h3.983c.632 0 1.149.517 1.149 1.148V22.34c0 .631-.517 1.148-1.149 1.148H9.304a1.151 1.151 0 01-1.148-1.148V11.795c0-.631.517-1.148 1.148-1.148zm8.156-9.7h3.984c.631 0 1.148.517 1.148 1.149v20.243c0 .631-.517 1.148-1.148 1.148H17.46a1.151 1.151 0 01-1.148-1.148V2.096c0-.632.517-1.149 1.148-1.149z" fill="#fff"/></svg>