<svg width="26" height="26" fill="none" xmlns="http://www.w3.org/2000/svg"><path fill-rule="evenodd" clip-rule="evenodd" d="M13 25.632c6.976 0 12.632-5.656 12.632-12.632S19.976.368 13 .368.368 6.024.368 13 6.024 25.632 13 25.632zm-.588-16.545c-.783.09-1.36.56-1.36 1.31 0 .594.38 1.023 1.13 1.27.074.025.148.05.23.066V9.087zm1.27 7.872c.874-.074 1.492-.61 1.492-1.418 0-.676-.404-1.13-1.327-1.385a1.612 1.612 0 01-.165-.04v2.843zm.008 1.78l.008 1.047h-1.335l.008-1.03c-2.728-.198-3.75-1.805-3.767-3.33h2.16c.041.758.593 1.393 1.649 1.533v-3.066l-.71-.157c-1.533-.338-2.884-1.294-2.884-3.165 0-1.979 1.566-3.075 3.56-3.256V6.25h1.336v1.072c2.085.222 3.43 1.525 3.462 3.24h-2.11c-.025-.66-.511-1.32-1.385-1.46v2.877l.7.149c1.658.354 3.001 1.195 3.001 3.19 0 1.961-1.434 3.206-3.693 3.42z" fill="#fff"/></svg>