<svg width="35" height="22" fill="none" xmlns="http://www.w3.org/2000/svg"><path fill-rule="evenodd" clip-rule="evenodd" d="M32.64 4.226c.86.2 1.728-.417 1.728-1.29a1.23 1.23 0 00-.892-1.192C28.5.36 23.5 1.037 18.525 1.833c-.652.104-1.13.66-1.13 1.312 0 .82.744 1.444 1.565 1.314 4.553-.72 9.126-1.292 13.68-.233zM3.008 2.645C1.716 2.399.421 3.32.421 4.619v3.919c0 .824.535 1.563 1.345 1.765 3.87.964 7.72.76 11.589.25a1.886 1.886 0 001.641-1.87v-4.09c0-1.165-1.05-2.053-2.22-1.906-3.26.408-6.509.577-9.768-.042zm6.638 6.619a28.187 28.187 0 01-1.225-.816 71.461 71.461 0 00-.51-.35c-.59.437-1.143.838-1.734 1.202l.665-1.967a55.896 55.896 0 01-1.735-1.348c.701.073 1.44.11 2.14.11.111-.328.222-.665.333-1.002.11-.337.22-.674.332-1.002.11.328.221.665.332 1.002.11.337.221.674.332 1.002l.1-.006c.67-.034 1.372-.07 2.04-.14-.59.473-1.144.91-1.734 1.348l.664 1.967zm22.994.172c.86.2 1.728-.418 1.728-1.29a1.23 1.23 0 00-.892-1.193C28.5 5.57 23.5 6.247 18.525 7.042c-.652.104-1.13.66-1.13 1.312 0 .82.744 1.444 1.565 1.315 4.553-.72 9.126-1.293 13.68-.233zm1.728 3.96c0 .872-.866 1.49-1.726 1.291-5.087-1.174-10.167-.348-15.247.479-5.356.87-10.711 1.742-16.075.269a1.232 1.232 0 01-.899-1.196c0-.872.867-1.49 1.727-1.29 5.086 1.174 10.167.347 15.247-.48 5.355-.87 10.71-1.742 16.074-.268.54.148.9.643.9 1.195zm0 5.246c0 .872-.866 1.49-1.726 1.291-5.087-1.174-10.167-.348-15.247.479-5.356.87-10.711 1.742-16.075.269a1.232 1.232 0 01-.899-1.196c0-.872.867-1.49 1.727-1.291 5.086 1.175 10.167.348 15.247-.478 5.355-.871 10.71-1.743 16.074-.27.54.149.9.643.9 1.196z" fill="#fff"/></svg>