<svg width="34" height="32" fill="none" xmlns="http://www.w3.org/2000/svg"><path fill-rule="evenodd" clip-rule="evenodd" d="M.423 31.266h7.166V10.17H.423v21.096zM4.007 7.29c2.5 0 4.054-1.619 4.054-3.644C8.018 1.576 6.506 0 4.054 0 1.6 0 0 1.577 0 3.646 0 5.67 1.554 7.29 3.959 7.29h.048zm7.552 23.976s.095-19.117 0-21.094h7.17v3.057h-.049c.943-1.439 2.641-3.553 6.509-3.553 4.715 0 8.254 3.013 8.254 9.495v12.095h-7.17V19.981c0-2.837-1.038-4.77-3.632-4.77-1.98 0-3.16 1.302-3.675 2.564-.194.45-.237 1.08-.237 1.712v11.78h-7.17z" fill="#fff"/></svg>