<svg width="14" height="16" fill="none" xmlns="http://www.w3.org/2000/svg"><path fill-rule="evenodd" clip-rule="evenodd" d="M6.9 1.432a4.853 4.853 0 00-4.853 4.853c0 1.747.847 3.43 1.92 4.851 1.065 1.41 2.295 2.483 2.933 2.997.638-.514 1.868-1.587 2.933-2.997 1.073-1.42 1.92-3.104 1.92-4.85A4.853 4.853 0 006.9 1.431zM.615 6.285a6.285 6.285 0 0112.57 0c0 2.196-1.053 4.184-2.21 5.715-1.164 1.54-2.494 2.699-3.179 3.25a1.422 1.422 0 01-1.792 0c-.685-.551-2.015-1.71-3.18-3.25C1.669 10.469.615 8.48.615 6.285z" fill="#D6220F"/><path fill-rule="evenodd" clip-rule="evenodd" d="M6.9 4.614a1.67 1.67 0 100 3.342 1.67 1.67 0 000-3.342zm-3.103 1.67a3.103 3.103 0 116.206 0 3.103 3.103 0 01-6.206 0z" fill="#D6220F"/></svg>