<svg width="30" height="28" fill="none" xmlns="http://www.w3.org/2000/svg"><path d="M13.932 1.245c.414-.888 1.722-.888 2.136 0l3.42 7.35c.173.371.54.624.96.661l8.487.754c1.031.091 1.44 1.334.653 1.982l-6.333 5.21a1.104 1.104 0 00-.38 1.111l1.845 7.723c.23.959-.835 1.721-1.72 1.233l-7.42-4.08c-.36-.199-.8-.199-1.16 0L7 27.268c-.885.488-1.95-.274-1.72-1.233l1.846-7.723a1.105 1.105 0 00-.38-1.111l-6.334-5.21c-.787-.649-.378-1.89.653-1.982l8.486-.754c.42-.037.788-.29.96-.661l3.421-7.35z" fill="#fff"/></svg>