<svg width="236" height="90" fill="none" xmlns="http://www.w3.org/2000/svg"><path d="M106.936 65.784v-42.01h.055l19.965 28.694 20.295-28.693h.11v42.01h-6.38V42.327l-14.025 20.17h-.11l-13.695-19.223v22.51h-6.215zm82.312-32.314a29.547 29.547 0 00-4.565-1.895c-1.577-.557-3.117-.836-4.62-.836-1.98 0-3.557.446-4.73 1.338-1.137.854-1.705 2.08-1.705 3.677 0 1.114.403 2.098 1.21 2.953.807.817 1.833 1.541 3.08 2.173a38.79 38.79 0 003.96 1.727 28.388 28.388 0 014.675 2.228c1.54.892 2.805 2.117 3.795 3.678.99 1.523 1.485 3.565 1.485 6.128 0 2.117-.532 4.068-1.595 5.85-1.063 1.746-2.585 3.14-4.565 4.18-1.98 1.04-4.382 1.56-7.205 1.56-2.493 0-4.913-.39-7.26-1.17-2.31-.818-4.363-1.858-6.16-3.121l2.86-5.07c1.32 1.003 2.897 1.857 4.73 2.563 1.87.706 3.612 1.058 5.225 1.058 1.137 0 2.255-.185 3.355-.557 1.137-.371 2.072-.984 2.805-1.838.77-.855 1.155-1.987 1.155-3.399 0-1.151-.33-2.136-.99-2.953-.66-.817-1.522-1.523-2.585-2.117a20.915 20.915 0 00-3.41-1.672 77.916 77.916 0 01-3.85-1.615 18.45 18.45 0 01-3.575-2.173 10.885 10.885 0 01-2.695-3.232c-.697-1.263-1.045-2.823-1.045-4.68 0-2.228.513-4.16 1.54-5.794 1.027-1.672 2.438-2.972 4.235-3.9 1.833-.929 3.942-1.449 6.325-1.56 2.823 0 5.225.352 7.205 1.058 2.017.669 3.795 1.486 5.335 2.452l-2.42 4.958zm32.232-8.246c4.583 0 8.14 1.151 10.67 3.454 2.567 2.303 3.85 5.497 3.85 9.583a16.67 16.67 0 01-.715 4.791 11.969 11.969 0 01-2.365 4.346c-1.063 1.3-2.457 2.34-4.18 3.12-1.723.78-3.85 1.17-6.38 1.17h-5.775v14.096h-6.435v-40.56h11.33zm.88 20.224c1.87 0 3.337-.408 4.4-1.226 1.063-.817 1.797-1.782 2.2-2.897.44-1.114.66-2.098.66-2.953 0-.854-.202-1.82-.605-2.897-.367-1.114-1.063-2.061-2.09-2.841-1.027-.78-2.493-1.17-4.4-1.17h-5.94v13.984h5.775z" fill="#fff"/><path fill-rule="evenodd" clip-rule="evenodd" d="M79.299 48.916c.25-2.742.273-5.507.071-8.284-1.816-.937-4.272-1.827-7.393-2.61a38.422 38.422 0 00-1.318-5.578c2.35-2.445 4.106-4.593 5.258-6.433a45.131 45.131 0 00-3.727-7.156c-1.994.225-4.533.854-7.583 1.934a37.826 37.826 0 00-3.572-4.058c.949-3.43 1.519-6.278 1.709-8.521-2.03-1.626-4.154-3.027-6.373-4.166-1.626 1.317-3.525 3.276-5.685 5.91a28.738 28.738 0 00-4.949-1.46c-.7-3.489-1.471-6.254-2.302-8.295A35.02 35.02 0 0036.04.27c-.83 2.065-1.614 4.866-2.302 8.39a30.77 30.77 0 00-4.771 1.472c-2.148-2.634-4.035-4.616-5.66-5.957A40.602 40.602 0 0016.78 8.34c.213 2.243.771 5.08 1.72 8.486a35.955 35.955 0 00-3.607 3.963c-3.062-1.08-5.602-1.709-7.595-1.934a45.36 45.36 0 00-3.691 7.168c1.163 1.84 2.907 3.988 5.257 6.42a39.408 39.408 0 00-1.293 5.578c-3.11.784-5.566 1.674-7.382 2.6a53.618 53.618 0 000 8.283c1.816.938 4.284 1.816 7.405 2.61.309 1.9.748 3.751 1.306 5.531-2.35 2.433-4.095 4.581-5.258 6.42a45.912 45.912 0 003.703 7.216c1.994-.225 4.522-.854 7.56-1.934a35.373 35.373 0 003.584 4.035c-.95 3.43-1.52 6.278-1.721 8.52a38.742 38.742 0 006.409 4.166c1.625-1.317 3.536-3.287 5.684-5.934a29.147 29.147 0 004.902 1.472c.7 3.513 1.483 6.29 2.314 8.343 2.456.25 4.89.25 7.346.012.83-2.041 1.614-4.818 2.314-8.32a28.3 28.3 0 004.949-1.459c2.172 2.658 4.082 4.628 5.72 5.934a38.276 38.276 0 006.35-4.166c-.19-2.255-.76-5.103-1.721-8.556a36.32 36.32 0 003.548-4.071c3.014 1.068 5.53 1.697 7.524 1.934a48.596 48.596 0 003.715-7.31c-1.187-1.828-2.932-3.964-5.258-6.373.558-1.78.997-3.596 1.318-5.447 3.109-.795 5.59-1.674 7.417-2.611zm-36.434-29.99c.368-.64.855-1.02 1.745-.95.26.072.7.179 1.139.333.724.25 1.46.487 2.172.795 1.816.795 3.536 1.78 5.139 3.05 1.234.985 2.397 2.053 3.453 3.276.095.107.19.225.273.344.166.178.32.368.463.57.095.118.19.237.285.367.26.32.367.736.356 1.128 0 .297-.178.605-.309.878a1.355 1.355 0 01-.926.748c-.985.225-1.97.462-2.955.688-.937.214-1.792-.036-2.516-.76-1.21-1.186-2.516-2.195-3.952-2.99-.26-.143-.522-.285-.783-.416a8.451 8.451 0 00-.688-.284 2.777 2.777 0 01-.938-.523c-.57-.403-.973-.996-1.21-1.768-.261-.842-.487-1.685-.724-2.54-.071-.237-.178-.462-.226-.712-.106-.439-.011-.854.202-1.234zm-21.73 8.355c.178-.237.475-.665.807-1.056.546-.665 1.092-1.33 1.674-1.935 1.507-1.554 3.133-2.92 4.937-4.023 1.388-.854 2.824-1.59 4.331-2.124.51-.178 1.021-.32 1.543-.487.38-.118.772-.047 1.104.143.237.142.415.463.581.736.238.403.297.854.178 1.34-.273 1.152-.545 2.315-.819 3.466-.201.843-.605 1.495-1.198 1.946a3.99 3.99 0 01-1.258.772c-.285.118-.558.237-.83.368a18.718 18.718 0 00-2.86 2.029c-.559.475-1.093.997-1.603 1.53-.736.772-1.602 1.069-2.575.927-.82-.12-1.626-.285-2.433-.416-.226-.035-.463-.035-.689-.095-.415-.107-.712-.391-.925-.807-.356-.7-.44-1.412.035-2.314zm-1.614 26.667c-.154.19-.273.403-.427.57-.297.32-.653.438-1.056.403-.677-.048-1.21-.344-1.602-1.258-.072-.297-.214-.783-.309-1.294-.166-.842-.356-1.685-.463-2.551-.284-2.184-.38-4.391-.201-6.599.142-1.709.391-3.394.819-5.043.142-.558.32-1.092.474-1.65a1.57 1.57 0 01.689-.914c.225-.142.545-.13.83-.13.416 0 .76.19 1.033.546.664.866 1.329 1.72 1.994 2.587.628.83.854 1.792.664 2.86a23.028 23.028 0 00-.344 5.34c.047.582.119 1.163.19 1.745.035.332.071.664.071.997a3.54 3.54 0 01-.76 2.373c-.534.712-1.068 1.353-1.602 2.018zM36.528 70.87c-.356.653-.843 1.044-1.733.997-.261-.071-.712-.154-1.151-.297-.736-.225-1.472-.439-2.196-.736-1.827-.747-3.572-1.685-5.198-2.919-1.258-.95-2.444-1.994-3.524-3.192-.368-.404-.7-.831-1.057-1.247-.26-.308-.38-.723-.38-1.115 0-.297.155-.605.297-.878.19-.404.51-.665.914-.772.985-.249 1.958-.51 2.943-.76.938-.237 1.792-.011 2.528.69a18.135 18.135 0 004.023 2.883c.606.32 1.223.593 1.852.843.902.356 1.507 1.044 1.84 2.053.272.83.521 1.673.77 2.516.072.237.179.463.238.7.13.439.035.854-.166 1.234zm-7.512-26.109c0-12.057 13.184-17.564 20.246-8.818 6.681 8.284 1.59 21.932-8.616 21.932-6.42 0-11.63-5.875-11.63-13.114zm28.886 18.466c-.178.226-.475.617-.796.973-.534.606-1.068 1.223-1.637 1.78-1.472 1.425-3.05 2.659-4.783 3.644-1.341.76-2.718 1.412-4.166 1.875-.486.154-.985.273-1.471.415-.368.107-.736.012-1.045-.178-.225-.142-.38-.45-.522-.724a1.679 1.679 0 01-.142-1.27v-.011a1.25 1.25 0 01.047-.202c.048-.166.095-.344.143-.51l.676-2.528c.107-.392.261-.736.451-1.044.13-.214.285-.416.475-.582.308-.285.7-.487 1.08-.653 1.293-.57 2.516-1.27 3.643-2.171.653-.523 1.27-1.104 1.899-1.65.071-.06.142-.119.226-.178.652-.534 1.388-.712 2.207-.558.771.142 1.53.32 2.302.487.214.047.44.047.653.106.392.107.665.404.854.796.32.664.38 1.329-.095 2.183zm6.076-16.377a31.366 31.366 0 01-.867 4.937l-.035.178a6.073 6.073 0 01-.273.902c-.095.308-.202.617-.297.925-.13.428-.415.748-.736.938-.237.142-.57.119-.866.119-.427-.012-.783-.214-1.068-.594-.676-.913-1.353-1.816-2.03-2.741-.64-.878-.854-1.887-.64-2.99a24.08 24.08 0 00.45-5.614 26.416 26.416 0 00-.19-2.362c-.13-1.127.143-2.089.808-2.92.558-.688 1.127-1.34 1.697-2.017.154-.19.297-.415.463-.593a1.31 1.31 0 011.103-.404c.7.06 1.258.392 1.638 1.353.071.309.202.82.297 1.353.166.878.344 1.768.439 2.659.285 2.278.332 4.569.107 6.87z" fill="#fff"/><path d="M44.314 52.976c-.083.356-.498.64-.498.64-.7.357-1.543-.236-1.9-.877L42 52.56c.273-.523.344-1.175.237-1.757l2.077 2.172z" fill="#fff"/><path d="M49.227 49a1.358 1.358 0 01-.854.82s-.238.118-.653-.06l-2.742-2.813c-.083-.06-.154-.06-.19.06-.035.059-.035.237.036.296l2.79 2.872c.082.297.082.76-.19.997 0 0-.5.76-1.627.178l-2.788-2.872c-.036-.06-.155-.06-.19.06-.036.118-.036.237.035.296l2.79 2.872c.308.76-.036 1.994-1.164 1.056 0 0-1.744-1.815-2.433-2.516a3.353 3.353 0 00-.308-.522c-.309-.356-.653-.463-1.01-.415-.153.06-.343.119-.462.237a2.818 2.818 0 00-.498-1.115c-.582-.7-1.436-.523-1.9.356a2.067 2.067 0 00-.39-.641c-.345-.416-.808-.522-1.2-.356-.083-.356-.237-.7-.462-.938-.546-.581-1.235-.522-1.745.06l1.317-6.61c.428.937 1.163 1.056 1.353 1.115.736.118 1.27-.119 1.78-.356.238-.119.463-.238.7-.297.653-.178 1.698-.237 2.208.119.89.581 2.053 1.34 2.896 2.397.344.415.652.938 1.008 1.46.31.522.653 1.056 1.045 1.519 1.697 2.16 2.314 2.813 2.706 2.813.06-.012.095-.072.142-.072z" fill="#fff"/><path d="M49.761 47.481c-.19.12-.427.297-.653.523-.154.178-2.053-2.22-2.278-2.516-.736-.938-1.317-2.1-2.053-2.979-.89-1.116-2.006-1.934-3.098-2.575-.652-.416-1.851-.356-2.551-.119-.855.237-1.389.819-2.279.64-.308-.058-.652-.177-.89-.58-.463-.82-.273-1.401.309-1.698.854-.415 1.626-.819 2.433-1.46.237-.178.617-.118.854-.118.546 0 1.044.06 1.543.119.617.059 1.27 0 1.899.296.462.238.89.582 1.353.878.581.356 1.198.582 1.815.76.119 0 .855.06 1.389.06l2.207 8.77zM34.38 49.582c-.308-.356-.39-1.116-.154-1.578l.084-.178c.237-.463.735-.582 1.044-.238.308.356.392 1.116.154 1.579l-.083.178c-.237.534-.736.593-1.044.237zm1.508 1.638c-.309-.356-.392-1.116-.154-1.579l.273-.522c.237-.463.735-.581 1.044-.237.308.356.392 1.115.154 1.578l-.273.522c-.237.534-.7.653-1.044.238zm1.542 1.756c-.308-.356-.39-1.116-.154-1.579l1.01-1.993c.237-.463.735-.582 1.044-.238.308.356.391 1.116.154 1.579l-1.009 1.994c-.237.534-.736.593-1.044.237zm2.244.819c-.309-.356-.392-1.116-.155-1.579l.772-1.578c.237-.463.736-.581 1.044-.237.309.356.392 1.115.154 1.578l-.771 1.578c-.273.535-.736.653-1.044.238zm13.837-19.772l-4.984 2.872c-.309.178-.463.641-.344 1.116L50.39 46.9c.119.463.428.7.736.522l2.397-1.341V34.023h-.012zm-2.005 11.643c-.392 0-.7-.463-.7-1.057 0-.581.308-1.056.7-1.056.391 0 .7.463.7 1.056-.048.594-.356 1.057-.7 1.057zm-16.508-7.31l-1.851 9.066c-.084.463-.428.7-.7.582l-2.86-1.4V34.843l5.067 2.397c.26.178.462.64.344 1.116z" fill="#fff"/><path fill-rule="evenodd" clip-rule="evenodd" d="M27.177 4.154l-3.88-.12s-4.7 2.611-6.504 4.273h3.857l6.527-4.153zM11.156 18.81l-3.87-.084s-2.385 3.441-3.666 7.263h3.857l3.679-7.179zM4.061 40.586H.17s-.38 4.355 0 8.284h3.88l.012-8.284zM3.62 63.455H7.5l3.703 7.216h-3.88S5.114 67.3 3.62 63.455zm17.018 17.837l6.408 4.166h-3.88s-3.027-1.413-6.409-4.166h3.88zm15.428 8.059h3.88l7.347.012-2.884.178c.012 0-5.246.142-8.343-.19zm24.21-3.834h-3.88l-.321-2.8 2.706-2.671 1.495 5.47zm11.82-14.858h3.881l-3.465-3.715-1.4 1.852v1.353l.984.51zM36.03.248h3.881l7.394-.071L44.23.01c.012.012-5.174-.106-8.2.238zm20.341 3.773h3.881l1.531 3.252-3.88 2.113s-2.635-1.531-2.54-1.745c.095-.213 1.008-3.62 1.008-3.62zm15.82 14.823h3.881l-1.946 1.685s-3.418 1.71-3.418 1.59c0-.118-.44-.64-.344-.901.095-.261 1.827-2.374 1.827-2.374z" fill="#fff"/><path fill-rule="evenodd" clip-rule="evenodd" d="M83.18 48.918c.25-2.742.274-5.507.072-8.284-1.816-.938-4.272-1.828-7.394-2.61a38.411 38.411 0 00-1.317-5.579c2.35-2.445 4.106-4.593 5.257-6.432a45.127 45.127 0 00-3.726-7.156c-1.994.225-4.534.854-7.584 1.934a37.816 37.816 0 00-3.572-4.059c.95-3.43 1.52-6.278 1.71-8.52-2.03-1.626-4.154-3.027-6.374-4.166-1.626 1.293-3.524 3.252-5.684 5.886a28.741 28.741 0 00-4.95-1.46c-.7-3.489-1.47-6.254-2.302-8.295a35.02 35.02 0 00-7.393.071c-.83 2.065-1.614 4.866-2.302 8.39a30.776 30.776 0 00-4.771 1.472c-2.148-2.634-4.047-4.616-5.673-5.957a40.602 40.602 0 00-6.527 4.165c.213 2.243.771 5.08 1.72 8.486a35.955 35.955 0 00-3.607 3.963c-3.062-1.08-5.602-1.709-7.596-1.934a45.367 45.367 0 00-3.69 7.168c1.163 1.84 2.907 3.988 5.257 6.42A39.4 39.4 0 0011.441 38c-3.11.784-5.566 1.674-7.382 2.6a53.616 53.616 0 000 8.283c1.816.938 4.284 1.816 7.405 2.61a39.94 39.94 0 001.306 5.531c-2.35 2.433-4.095 4.581-5.258 6.42a45.906 45.906 0 003.703 7.216c1.994-.225 4.522-.854 7.56-1.934a35.365 35.365 0 003.584 4.035c-.95 3.43-1.52 6.278-1.721 8.52a38.735 38.735 0 006.409 4.166c1.625-1.317 3.536-3.287 5.684-5.933a29.138 29.138 0 004.901 1.471c.7 3.513 1.484 6.29 2.315 8.343 2.456.25 4.89.25 7.346.012.83-2.041 1.614-4.818 2.314-8.32a28.3 28.3 0 004.949-1.459c2.172 2.658 4.082 4.628 5.72 5.934a38.273 38.273 0 006.35-4.166c-.19-2.255-.76-5.103-1.722-8.556a36.338 36.338 0 003.549-4.07c3.014 1.067 5.53 1.696 7.524 1.933a48.591 48.591 0 003.715-7.31c-1.187-1.828-2.932-3.964-5.258-6.373.558-1.78.997-3.596 1.317-5.447 3.122-.772 5.602-1.65 7.43-2.587zm-36.42-29.99c.368-.64.854-1.02 1.744-.95.261.072.7.178 1.14.333.724.249 1.46.486 2.171.795 1.816.795 3.537 1.78 5.14 3.05 1.233.985 2.396 2.053 3.453 3.275.095.107.19.226.273.345.166.178.32.367.462.57.095.118.19.237.285.367.261.32.368.736.356 1.128 0 .296-.178.605-.308.878a1.355 1.355 0 01-.926.747c-.985.226-1.97.463-2.955.689-.938.213-1.792-.036-2.516-.76-1.21-1.186-2.516-2.195-3.952-2.99a24.73 24.73 0 00-.783-.416 8.45 8.45 0 00-.689-.285 2.776 2.776 0 01-.937-.522c-.57-.403-.973-.997-1.21-1.768-.262-.843-.487-1.685-.724-2.54-.072-.237-.178-.463-.226-.712-.107-.439-.012-.854.202-1.234zm-21.73 8.355c.178-.238.475-.665.807-1.056.546-.665 1.092-1.33 1.673-1.935 1.508-1.555 3.133-2.92 4.937-4.023 1.389-.854 2.825-1.59 4.332-2.124.51-.178 1.02-.32 1.543-.487.38-.119.771-.047 1.104.142.237.143.415.463.581.736.237.404.297.855.178 1.341l-.819 3.466c-.202.842-.605 1.495-1.199 1.946a3.99 3.99 0 01-1.257.771c-.285.12-.558.238-.831.368a18.717 18.717 0 00-2.86 2.03 21.64 21.64 0 00-1.602 1.53c-.736.772-1.603 1.069-2.576.926-.819-.118-1.626-.285-2.433-.415-.225-.036-.462-.036-.688-.095-.415-.107-.712-.392-.926-.807-.367-.7-.45-1.412.036-2.314zm-1.626 26.666c-.154.19-.273.404-.427.57a1.22 1.22 0 01-1.056.404c-.677-.048-1.21-.345-1.603-1.258-.07-.297-.213-.784-.308-1.294-.166-.843-.356-1.685-.463-2.552-.285-2.183-.38-4.39-.202-6.598.143-1.709.392-3.394.82-5.044.142-.557.32-1.091.474-1.65a1.57 1.57 0 01.688-.913c.226-.142.546-.13.831-.13.415 0 .76.19 1.032.545.665.867 1.33 1.721 1.994 2.587.63.831.855 1.792.665 2.86a23.022 23.022 0 00-.344 5.341c.047.581.118 1.163.19 1.745.035.332.07.664.07.997a3.54 3.54 0 01-.759 2.373c-.522.712-1.068 1.353-1.602 2.017zM40.41 70.874c-.356.653-.843 1.044-1.733.997-.261-.072-.712-.155-1.151-.297-.736-.225-1.472-.44-2.196-.736-1.828-.747-3.572-1.685-5.198-2.92-1.258-.949-2.445-1.993-3.525-3.192-.367-.403-.7-.83-1.056-1.246-.26-.308-.38-.724-.38-1.115 0-.297.155-.606.297-.878.19-.404.51-.665.914-.772.985-.25 1.958-.51 2.943-.76.938-.237 1.792-.011 2.528.689a18.137 18.137 0 004.023 2.884 18.5 18.5 0 001.851.842c.902.356 1.508 1.045 1.84 2.053.273.831.522 1.674.771 2.516.072.238.178.463.238.7.13.44.047.855-.166 1.235zm-9.055-26.11c0-12.733 13.92-18.548 21.373-9.303 7.05 8.734 1.674 23.154-9.09 23.154-6.789-.012-12.283-6.207-12.283-13.85zm30.44 18.467c-.178.226-.475.617-.795.973-.534.605-1.068 1.223-1.638 1.78-1.471 1.424-3.05 2.659-4.782 3.644-1.341.76-2.718 1.412-4.166 1.875-.487.154-.985.273-1.472.415-.367.107-.735.012-1.044-.178-.225-.142-.38-.45-.522-.724a1.679 1.679 0 01-.142-1.27v-.011c.011-.072.023-.131.047-.202l.142-.51.677-2.528c.107-.392.26-.736.45-1.045.131-.213.286-.415.476-.581.308-.285.7-.487 1.08-.653 1.293-.57 2.515-1.27 3.643-2.172.653-.522 1.27-1.103 1.899-1.65a3.72 3.72 0 01.225-.177c.653-.534 1.389-.712 2.208-.558.77.142 1.53.32 2.302.486.213.048.439.048.653.107.391.107.664.404.854.795.32.665.38 1.33-.095 2.184zm6.064-16.377a31.365 31.365 0 01-.866 4.937l-.035.178a6.057 6.057 0 01-.273.901c-.095.31-.202.618-.297.926a1.65 1.65 0 01-.736.938c-.237.142-.57.119-.866.119-.427-.012-.784-.214-1.068-.594-.677-.914-1.353-1.816-2.03-2.741-.64-.879-.854-1.887-.64-2.991a24.08 24.08 0 00.45-5.614 26.377 26.377 0 00-.19-2.361c-.13-1.128.143-2.089.808-2.92.557-.688 1.127-1.34 1.697-2.017.154-.19.296-.415.462-.593a1.31 1.31 0 011.104-.404c.7.06 1.258.392 1.638 1.353.071.309.202.819.297 1.353.166.878.344 1.768.439 2.658.284 2.279.344 4.57.106 6.872z" fill="#D6220F"/></svg>