<svg width="138" height="53" fill="none" xmlns="http://www.w3.org/2000/svg"><path d="M62.53 38.467V13.902h.033l11.674 16.779 11.868-16.779h.064v24.565h-3.73V24.751l-8.202 11.794h-.064l-8.008-11.24v13.162H62.53zm48.132-18.896a17.278 17.278 0 00-2.669-1.108c-.922-.325-1.823-.488-2.702-.488-1.158 0-2.08.26-2.766.782-.664.5-.997 1.216-.997 2.15 0 .651.236 1.227.708 1.727.471.477 1.072.901 1.801 1.27.729.37 1.501.706 2.315 1.01.944.348 1.855.782 2.734 1.303a6.398 6.398 0 012.219 2.15c.579.891.869 2.086.869 3.584a6.555 6.555 0 01-.933 3.421c-.622 1.021-1.512 1.836-2.669 2.444-1.158.608-2.563.912-4.214.912a13.37 13.37 0 01-4.245-.684c-1.35-.478-2.551-1.086-3.602-1.825l1.672-2.965c.772.587 1.694 1.087 2.766 1.5 1.094.412 2.112.618 3.056.618a6.07 6.07 0 001.961-.326 3.578 3.578 0 001.641-1.075c.45-.5.675-1.162.675-1.987 0-.673-.193-1.249-.579-1.727-.386-.478-.89-.89-1.511-1.238a12.259 12.259 0 00-1.994-.977 45.705 45.705 0 01-2.252-.945 10.79 10.79 0 01-2.09-1.27 6.362 6.362 0 01-1.576-1.89c-.407-.739-.611-1.65-.611-2.737 0-1.303.3-2.433.9-3.388a6.165 6.165 0 012.477-2.28c1.072-.544 2.305-.848 3.698-.913 1.651 0 3.056.206 4.213.62 1.18.39 2.22.868 3.12 1.433l-1.415 2.9zm18.848-4.821c2.68 0 4.759.673 6.239 2.02 1.501 1.346 2.251 3.214 2.251 5.603 0 .934-.139 1.868-.418 2.802a7.002 7.002 0 01-1.383 2.541c-.622.76-1.436 1.368-2.444 1.825-1.008.456-2.251.684-3.731.684h-3.377v8.242h-3.763V14.75h6.626zm.514 11.826c1.094 0 1.951-.24 2.573-.717.622-.478 1.051-1.043 1.286-1.694.258-.652.386-1.227.386-1.727s-.118-1.064-.353-1.694c-.215-.652-.622-1.205-1.222-1.662-.601-.456-1.458-.684-2.573-.684h-3.474v8.178h3.377z" fill="#080808"/><path fill-rule="evenodd" clip-rule="evenodd" d="M46.37 28.605c.146-1.604.16-3.22.042-4.844-1.062-.549-2.498-1.069-4.323-1.527a22.456 22.456 0 00-.77-3.262c1.373-1.43 2.4-2.685 3.074-3.76a26.393 26.393 0 00-2.18-4.185c-1.165.131-2.65.5-4.434 1.13a22.121 22.121 0 00-2.089-2.373c.556-2.005.889-3.67 1-4.982a22.153 22.153 0 00-3.727-2.436c-.95.77-2.06 1.915-3.324 3.456-.95-.375-1.915-.66-2.894-.854-.41-2.04-.86-3.657-1.346-4.85a20.478 20.478 0 00-4.323.041c-.486 1.208-.944 2.845-1.347 4.906-.95.209-1.88.5-2.79.86-1.255-1.54-2.359-2.699-3.31-3.483a23.74 23.74 0 00-3.816 2.436c.125 1.312.45 2.97 1.006 4.962a21.02 21.02 0 00-2.11 2.318c-1.79-.632-3.275-1-4.441-1.131a26.525 26.525 0 00-2.158 4.191c.68 1.076 1.7 2.332 3.074 3.754a23.042 23.042 0 00-.756 3.262c-1.819.458-3.255.978-4.317 1.52a31.352 31.352 0 000 4.844c1.062.548 2.505 1.061 4.33 1.526.18 1.11.438 2.193.764 3.234-1.374 1.423-2.394 2.679-3.074 3.755a26.844 26.844 0 002.165 4.219c1.166-.132 2.644-.5 4.42-1.131a20.668 20.668 0 002.096 2.36c-.555 2.005-.888 3.67-1.006 4.982a22.648 22.648 0 003.747 2.435c.95-.77 2.068-1.922 3.324-3.47.923.368 1.888.66 2.866.861.41 2.054.868 3.678 1.354 4.879 1.436.146 2.859.146 4.295.007.486-1.194.944-2.818 1.353-4.865a16.592 16.592 0 002.894-.854c1.27 1.555 2.387 2.707 3.345 3.47a22.378 22.378 0 003.713-2.435c-.111-1.319-.445-2.984-1.007-5.004a21.244 21.244 0 002.075-2.38c1.763.624 3.234.992 4.4 1.13a28.419 28.419 0 002.172-4.274c-.694-1.069-1.714-2.318-3.074-3.727a24.75 24.75 0 00.77-3.185c1.818-.465 3.269-.978 4.337-1.526zM25.067 11.068c.215-.375.5-.597 1.02-.555.153.042.41.104.666.194.424.146.854.285 1.27.465a13.508 13.508 0 013.005 1.784 15.01 15.01 0 012.02 1.915c.055.063.11.132.16.201.096.104.186.216.27.333.055.07.11.14.166.216.153.187.215.43.208.659 0 .173-.104.354-.18.513a.792.792 0 01-.541.438c-.576.131-1.152.27-1.728.402-.549.125-1.048-.02-1.471-.444a10.728 10.728 0 00-2.311-1.749c-.153-.083-.306-.166-.458-.243a4.976 4.976 0 00-.403-.166 1.623 1.623 0 01-.548-.306c-.333-.236-.57-.583-.708-1.034-.153-.492-.284-.985-.423-1.485-.042-.138-.104-.27-.132-.416a.972.972 0 01.118-.722zM12.36 15.954c.104-.14.277-.389.471-.618.32-.389.639-.777.979-1.131.881-.91 1.832-1.707 2.887-2.353.812-.5 1.651-.93 2.533-1.242.298-.104.596-.187.902-.284a.808.808 0 01.645.083c.139.083.243.27.34.43.14.236.174.5.104.784l-.479 2.027c-.117.492-.353.874-.7 1.138-.209.194-.458.34-.736.45-.166.07-.326.14-.486.216a10.94 10.94 0 00-1.672 1.187c-.326.277-.639.583-.937.895-.43.451-.937.624-1.506.541-.479-.07-.95-.166-1.422-.243-.132-.02-.271-.02-.403-.055-.243-.063-.416-.23-.541-.472-.209-.41-.257-.826.02-1.353zm-.944 15.593c-.09.111-.16.236-.25.333a.713.713 0 01-.618.236c-.395-.028-.708-.201-.937-.736-.041-.173-.125-.458-.18-.756-.097-.493-.208-.985-.27-1.492a18.384 18.384 0 01-.119-3.859c.084-.999.23-1.984.48-2.949.082-.326.187-.638.277-.964a.917.917 0 01.402-.535c.132-.083.32-.076.486-.076.243 0 .444.111.604.32.388.506.777 1.005 1.166 1.512.367.486.5 1.048.388 1.672a13.463 13.463 0 00-.201 3.123c.028.34.07.68.111 1.02.02.195.042.389.042.583.02.52-.132.986-.444 1.388-.313.417-.625.791-.937 1.18zm9.944 9.896c-.208.382-.493.61-1.013.583-.153-.042-.416-.09-.673-.174-.43-.132-.86-.256-1.284-.43a13.302 13.302 0 01-3.04-1.707 14.525 14.525 0 01-2.06-1.867c-.216-.236-.41-.486-.618-.729a1.018 1.018 0 01-.222-.652c0-.173.09-.354.173-.513a.804.804 0 01.535-.452c.575-.145 1.145-.298 1.72-.444.549-.138 1.048-.007 1.479.403a10.604 10.604 0 003.435 2.179c.527.208.881.61 1.075 1.2.16.486.306.979.451 1.472.042.139.105.27.14.41.076.256.02.499-.098.72zm-4.393-15.267c0-7.05 7.71-10.27 11.84-5.156 3.906 4.843.93 12.824-5.039 12.824-3.754 0-6.8-3.435-6.8-7.668zm16.891 10.798c-.104.132-.277.36-.465.569-.312.354-.624.715-.957 1.04-.86.834-1.784 1.555-2.797 2.131-.784.444-1.59.826-2.436 1.097-.284.09-.576.16-.86.242a.756.756 0 01-.61-.104c-.133-.083-.223-.263-.306-.423a.981.981 0 01-.084-.742v-.007a.733.733 0 01.028-.118l.084-.299.395-1.478c.063-.229.153-.43.264-.61a1.45 1.45 0 01.277-.34c.18-.167.41-.285.632-.382a9.504 9.504 0 002.13-1.27c.382-.306.743-.646 1.11-.965.042-.035.084-.07.132-.104a1.505 1.505 0 011.291-.326c.451.083.895.187 1.347.284.124.028.256.028.381.063.23.062.389.236.5.465.187.388.222.777-.056 1.277zm3.553-9.577a18.351 18.351 0 01-.506 2.887l-.021.104a3.54 3.54 0 01-.16.527c-.055.18-.117.361-.173.542a.966.966 0 01-.43.548c-.14.083-.333.07-.507.07-.25-.008-.458-.126-.624-.348-.396-.534-.792-1.061-1.187-1.603-.375-.513-.5-1.103-.375-1.748.215-1.083.306-2.18.264-3.283a15.438 15.438 0 00-.111-1.38c-.077-.66.083-1.222.472-1.708.326-.402.659-.784.992-1.18.09-.11.173-.243.27-.347a.766.766 0 01.646-.236c.41.035.736.23.958.791.041.18.118.48.173.792.097.513.202 1.034.257 1.554a18.09 18.09 0 01.063 4.018z" fill="#080808"/><path d="M25.912 30.978c-.048.208-.291.374-.291.374-.41.209-.902-.138-1.11-.513l.048-.104c.16-.306.201-.687.139-1.027l1.214 1.27z" fill="#080808"/><path d="M28.785 28.653a.793.793 0 01-.5.479s-.138.07-.381-.035L26.3 27.452c-.049-.034-.09-.034-.111.035-.021.035-.021.139.02.174l1.631 1.679c.049.173.049.444-.11.583 0 0-.292.444-.951.104l-1.631-1.68c-.02-.034-.09-.034-.111.035-.021.07-.021.139.02.174l1.631 1.68c.18.443-.02 1.165-.68.617 0 0-1.02-1.062-1.422-1.472a1.97 1.97 0 00-.18-.305c-.181-.208-.382-.27-.59-.243-.09.035-.202.07-.271.14a1.649 1.649 0 00-.292-.653c-.34-.41-.84-.306-1.11.208a1.207 1.207 0 00-.229-.375c-.201-.243-.472-.305-.7-.208a1.2 1.2 0 00-.271-.548c-.32-.34-.722-.306-1.02.035l.77-3.866c.25.548.68.618.79.652.431.07.743-.069 1.042-.208.139-.07.27-.139.41-.173.38-.104.991-.139 1.29.07.52.34 1.2.783 1.693 1.4.201.244.382.55.59.855.18.305.382.617.61.888.993 1.263 1.354 1.645 1.583 1.645.035-.008.055-.042.083-.042z" fill="#080808"/><path d="M29.097 27.765c-.11.069-.25.173-.381.305-.09.104-1.2-1.298-1.333-1.471-.43-.549-.77-1.229-1.2-1.742-.52-.652-1.173-1.131-1.812-1.506-.381-.243-1.082-.208-1.492-.07-.5.14-.812.48-1.332.375-.18-.034-.382-.104-.52-.34-.271-.479-.16-.819.18-.992.5-.243.95-.479 1.423-.854.138-.104.36-.069.5-.069.319 0 .61.035.901.07.361.034.743 0 1.11.173.271.139.521.34.792.513.34.209.7.34 1.062.445.069 0 .5.034.811.034l1.291 5.129zm-8.993 1.228c-.18-.208-.23-.652-.09-.923l.048-.104c.139-.27.43-.34.61-.139.181.208.23.652.091.923l-.049.104c-.138.312-.43.347-.61.139zm.881.957c-.18-.208-.229-.652-.09-.922l.16-.306c.139-.27.43-.34.61-.139.181.209.23.653.09.923l-.159.306c-.139.312-.41.381-.61.139zm.902 1.028c-.18-.209-.229-.653-.09-.923l.59-1.166c.139-.27.43-.34.61-.139.181.208.23.652.09.923l-.589 1.166c-.139.312-.43.347-.61.139zm1.312.478c-.18-.208-.23-.652-.09-.922l.45-.924c.14-.27.43-.34.611-.138.18.208.23.652.09.923l-.45.923c-.16.312-.43.381-.611.138zm8.091-11.561l-2.914 1.68c-.18.104-.27.374-.201.652l1.29 5.197c.07.271.25.41.431.306l1.402-.784v-7.051h-.007zm-1.172 6.808c-.229 0-.41-.27-.41-.618 0-.34.181-.617.41-.617.229 0 .41.27.41.617-.028.347-.209.618-.41.618zm-9.653-4.275l-1.083 5.302c-.048.27-.25.41-.41.34l-1.672-.82v-6.877l2.964 1.402c.152.104.27.374.2.652z" fill="#080808"/><path fill-rule="evenodd" clip-rule="evenodd" d="M15.892 2.429l-2.27-.07S10.875 3.885 9.82 4.857h2.255l3.817-2.428zM6.523 11l-2.262-.05s-1.395 2.012-2.144 4.247h2.255l2.151-4.198zM2.375 23.733H.099s-.222 2.546 0 4.843h2.269l.007-4.843zm-.258 13.372h2.269l2.165 4.22h-2.27s-1.29-1.971-2.164-4.22zm9.951 10.43l3.747 2.436h-2.269s-1.77-.825-3.747-2.435h2.269zm9.022 4.713h2.269l4.295.007-1.686.104c.007 0-3.067.083-4.878-.111zm14.156-2.242h-2.269l-.187-1.638 1.582-1.561.874 3.199zm6.912-8.688h2.27L42.4 39.146l-.82 1.082v.791l.577.299zM21.068.145h2.27L27.66.103 25.863.006c.007.007-3.025-.062-4.795.139zm11.895 2.207h2.27l.894 1.901-2.269 1.235s-1.54-.895-1.485-1.02c.056-.125.59-2.116.59-2.116zm9.25 8.668h2.27l-1.139.985s-1.998.999-1.998.93c0-.07-.257-.375-.201-.528.055-.152 1.068-1.388 1.068-1.388z" fill="#080808"/><path fill-rule="evenodd" clip-rule="evenodd" d="M48.64 28.604c.145-1.603.16-3.22.041-4.843-1.061-.549-2.498-1.07-4.323-1.527a22.47 22.47 0 00-.77-3.262c1.374-1.43 2.4-2.686 3.074-3.761a26.393 26.393 0 00-2.179-4.185c-1.166.132-2.651.5-4.434 1.132a22.114 22.114 0 00-2.09-2.374c.556-2.005.889-3.67 1-4.983a22.153 22.153 0 00-3.727-2.435c-.95.756-2.06 1.901-3.324 3.442-.95-.375-1.915-.66-2.893-.854-.41-2.04-.86-3.657-1.347-4.85a20.478 20.478 0 00-4.323.041c-.486 1.208-.944 2.845-1.346 4.906-.951.209-1.881.5-2.79.86-1.256-1.54-2.366-2.699-3.317-3.483a23.743 23.743 0 00-3.817 2.436c.125 1.312.451 2.97 1.006 4.962a21.018 21.018 0 00-2.11 2.318c-1.79-.632-3.275-1-4.44-1.132a26.525 26.525 0 00-2.159 4.192c.68 1.076 1.7 2.332 3.074 3.754a23.042 23.042 0 00-.756 3.262c-1.818.458-3.255.978-4.317 1.52a31.353 31.353 0 000 4.844c1.062.548 2.506 1.061 4.33 1.526.181 1.11.438 2.193.764 3.234-1.374 1.423-2.394 2.679-3.074 3.754a26.844 26.844 0 002.165 4.22c1.166-.132 2.644-.5 4.42-1.131a20.66 20.66 0 002.096 2.359c-.555 2.005-.888 3.671-1.006 4.983a22.644 22.644 0 003.748 2.435c.95-.77 2.068-1.922 3.324-3.47.922.368 1.887.66 2.866.861.409 2.054.867 3.678 1.353 4.879 1.436.145 2.859.145 4.295.007.486-1.194.944-2.818 1.354-4.865a16.59 16.59 0 002.893-.854c1.27 1.555 2.388 2.707 3.345 3.47a22.373 22.373 0 003.713-2.436c-.111-1.318-.444-2.984-1.006-5.003a21.233 21.233 0 002.075-2.38c1.762.624 3.234.992 4.4 1.13A28.41 28.41 0 0046.6 37.03c-.694-1.069-1.715-2.318-3.075-3.727a24.51 24.51 0 00.77-3.185c1.826-.45 3.276-.964 4.345-1.513zM27.342 11.068c.215-.375.5-.597 1.02-.555.153.041.41.104.667.194.423.146.853.285 1.27.465a13.512 13.512 0 013.004 1.784c.722.575 1.402 1.2 2.02 1.915.055.062.11.132.16.201.097.104.187.215.27.333.056.07.111.139.166.215.153.188.216.43.209.66 0 .173-.104.354-.18.513a.792.792 0 01-.542.437c-.576.132-1.152.271-1.728.403-.548.125-1.048-.021-1.471-.444a10.725 10.725 0 00-2.77-1.992 4.911 4.911 0 00-.402-.166 1.623 1.623 0 01-.548-.306c-.333-.236-.569-.583-.708-1.034-.152-.493-.284-.985-.423-1.485-.042-.139-.104-.27-.132-.416a.971.971 0 01.118-.722zm-12.706 4.885c.104-.138.277-.388.472-.617.319-.389.638-.777.978-1.131.881-.91 1.832-1.707 2.887-2.353.812-.5 1.652-.93 2.533-1.242.298-.104.597-.187.902-.285a.808.808 0 01.645.084c.14.083.243.27.34.43.14.236.174.5.105.784l-.48 2.027c-.117.492-.353.874-.7 1.138-.208.194-.458.34-.736.45-.166.07-.326.14-.486.216a10.96 10.96 0 00-1.672 1.186c-.326.278-.638.583-.937.896-.43.45-.937.624-1.506.541-.479-.07-.95-.167-1.422-.243-.132-.02-.27-.02-.403-.055-.243-.063-.416-.23-.541-.472-.215-.41-.264-.826.02-1.354zm-.951 15.594c-.09.11-.16.236-.25.333a.713.713 0 01-.617.236c-.396-.028-.708-.201-.937-.736-.042-.173-.125-.458-.18-.756-.098-.493-.209-.986-.271-1.492a18.386 18.386 0 01-.118-3.859c.083-.999.229-1.984.479-2.949.083-.326.187-.639.277-.965a.918.918 0 01.403-.534c.131-.083.319-.076.485-.076.243 0 .444.11.604.319.389.506.777 1.006 1.166 1.513.368.486.5 1.048.389 1.672a13.462 13.462 0 00-.202 3.123c.028.34.07.68.111 1.02.021.194.042.389.042.583.02.52-.132.986-.444 1.388-.306.416-.625.791-.937 1.18zm9.944 9.896c-.208.381-.492.61-1.013.583-.152-.042-.416-.09-.673-.174-.43-.132-.86-.257-1.284-.43a13.298 13.298 0 01-3.04-1.707 14.518 14.518 0 01-2.06-1.867c-.215-.236-.41-.486-.618-.729a1.018 1.018 0 01-.222-.652c0-.174.09-.354.174-.514a.804.804 0 01.534-.45c.576-.146 1.145-.3 1.72-.445.55-.139 1.049-.007 1.479.403a10.61 10.61 0 003.435 2.179c.527.208.881.61 1.076 1.2.16.486.305.979.45 1.471.043.14.105.271.14.41.076.257.027.5-.098.722zm-5.295-15.267c0-7.447 8.14-10.847 12.499-5.441 4.122 5.107.978 13.539-5.316 13.539-3.97-.007-7.183-3.63-7.183-8.099zm17.8 10.798c-.103.131-.277.36-.464.569-.313.354-.625.714-.958 1.04-.86.833-1.784 1.555-2.797 2.13-.784.445-1.589.827-2.435 1.097-.285.09-.576.16-.861.243a.757.757 0 01-.61-.104c-.133-.083-.223-.264-.306-.423a.982.982 0 01-.083-.743v-.007a.733.733 0 01.027-.118l.084-.298.395-1.478c.063-.23.153-.43.264-.61.076-.126.167-.244.278-.34.18-.167.409-.285.631-.383a9.507 9.507 0 002.13-1.27c.382-.305.743-.645 1.11-.964a2.17 2.17 0 01.133-.104 1.504 1.504 0 011.29-.326c.452.083.896.187 1.347.284.125.028.257.028.382.063.228.062.388.236.5.465.186.388.221.777-.056 1.276zm3.547-9.577a18.35 18.35 0 01-.507 2.887l-.02.104c-.042.18-.09.354-.16.527-.056.18-.118.361-.174.541a.966.966 0 01-.43.549c-.139.083-.333.07-.507.07-.25-.008-.458-.126-.624-.348-.396-.534-.791-1.062-1.187-1.603-.375-.513-.5-1.103-.375-1.749a14.01 14.01 0 00.264-3.282 15.4 15.4 0 00-.11-1.381c-.077-.66.082-1.221.471-1.707.326-.403.66-.784.992-1.18.09-.111.174-.243.271-.347a.766.766 0 01.645-.236c.41.035.736.23.958.791.042.18.118.48.173.791.098.514.202 1.034.257 1.555.167 1.332.201 2.672.063 4.018z" fill="#D6220F"/></svg>